<?xml version="1.0" encoding="UTF-8" standalone="no"?>
<!-- Created with Inkscape (http://www.inkscape.org/) -->

<svg
   width="11.832916mm"
   height="14.828016mm"
   viewBox="0 0 11.832916 14.828016"
   version="1.1"
   id="svg5"
   inkscape:version="1.2.1 (9c6d41e, 2022-07-14)"
   sodipodi:docname="Сайт1.svg"
   xml:space="preserve"
   inkscape:export-filename="../PNG/Сайт1.png"
   inkscape:export-xdpi="96"
   inkscape:export-ydpi="96"
   xmlns:inkscape="http://www.inkscape.org/namespaces/inkscape"
   xmlns:sodipodi="http://sodipodi.sourceforge.net/DTD/sodipodi-0.dtd"
   xmlns="http://www.w3.org/2000/svg"
   xmlns:svg="http://www.w3.org/2000/svg"><sodipodi:namedview
     id="namedview7"
     pagecolor="#ffffff"
     bordercolor="#000000"
     borderopacity="0.25"
     inkscape:showpageshadow="2"
     inkscape:pageopacity="0.0"
     inkscape:pagecheckerboard="0"
     inkscape:deskcolor="#d1d1d1"
     inkscape:document-units="mm"
     showgrid="false"
     inkscape:zoom="0.67351921"
     inkscape:cx="881.93476"
     inkscape:cy="481.05532"
     inkscape:window-width="1280"
     inkscape:window-height="772"
     inkscape:window-x="0"
     inkscape:window-y="28"
     inkscape:window-maximized="0"
     inkscape:current-layer="layer1"
     showguides="true" /><defs
     id="defs2"><linearGradient
       id="linearGradient6508"
       inkscape:swatch="solid"><stop
         style="stop-color:#ffffff;stop-opacity:1;"
         offset="0"
         id="stop6506" /></linearGradient></defs><g
     inkscape:label="Шар 1"
     inkscape:groupmode="layer"
     id="layer1"
     transform="translate(-354.59915,-26.052469)"><g
       id="g8357"
       inkscape:label="Групи товарів"
       transform="translate(0.13550892,-0.22549156)"><g
         id="g8274"
         inkscape:label="Пакунки"><g
           style="fill:#7554fa;fill-opacity:1"
           id="g2644"
           transform="matrix(0.60295026,0,0,0.66172856,221.88799,0.64060143)"
           inkscape:label="Подарунок"><path
             d="m 234.06625,44.807015 h 3.781 c 0.906,0 1.656,0.719 1.656,1.656 v 5.688 h -9 v -6.625 c -0.313,-0.094 -0.594,-0.219 -0.781,-0.406 -0.031,0 -0.031,-0.031 -0.063,-0.031 0,0 0,0.031 -0.031,0.031 -0.219,0.188 -0.469,0.313 -0.75,0.406 v 6.625 h -9 v -5.688 c 0,-0.938 0.719,-1.656 1.625,-1.656 h 3.813 c -0.438,-0.219 -0.844,-0.531 -1.188,-0.813 -1.5,-1.438 -1.781,-3.438 -0.594,-4.563 0.5,-0.438 1.156,-0.688 1.875,-0.688 1.031,0 2.094,0.406 3,1.25 0.5,0.469 0.969,1.125 1.25,1.75 0.313,-0.625 0.781,-1.281 1.281,-1.75 0.875,-0.844 2,-1.25 3,-1.25 0.75,0 1.406,0.25 1.875,0.688 1.188,1.125 0.906,3.125 -0.625,4.563 -0.313,0.281 -0.719,0.594 -1.125,0.813 z m -5.563,-0.906 c 0.125,-0.281 -0.188,-1.719 -1.219,-2.688 -0.531,-0.5 -1.25,-0.781 -1.875,-0.781 -0.188,0 -0.5,0.031 -0.719,0.219 -0.063,0.063 -0.25,0.188 -0.25,0.531 0,0.406 0.25,1.031 0.844,1.563 0.75,0.719 1.938,1.219 2.813,1.219 0.281,0 0.406,-0.063 0.406,-0.063 z m 2.375,0 c 0,0 0.156,0.063 0.406,0.063 0.875,0 2.063,-0.5 2.813,-1.219 0.594,-0.531 0.781,-1.156 0.781,-1.563 0,-0.344 -0.156,-0.469 -0.188,-0.531 -0.219,-0.188 -0.563,-0.219 -0.75,-0.219 -0.594,0 -1.344,0.281 -1.875,0.781 -1,0.969 -1.344,2.375 -1.188,2.719 v -0.031 z m -2,17.25 h -7.375 c -0.906,0 -1.625,-0.719 -1.625,-1.625 v -5.719 h 9 z m 8.969,0 h -7.344 v -7.344 h 9 v 5.719 c 0,0.906 -0.75,1.625 -1.656,1.625 z"
             id="path2635"
             style="fill:#7554fa;fill-opacity:1" /></g></g></g></g></svg>
