<?xml version="1.0" encoding="UTF-8" standalone="no"?>
<!-- Created with Inkscape (http://www.inkscape.org/) -->

<svg
   width="14.697525mm"
   height="13.537766mm"
   viewBox="0 0 14.697525 13.537766"
   version="1.1"
   id="svg5"
   inkscape:version="1.2.1 (9c6d41e, 2022-07-14)"
   sodipodi:docname="Сайт1.svg"
   xml:space="preserve"
   inkscape:export-filename="../PNG/Сайт1.png"
   inkscape:export-xdpi="96"
   inkscape:export-ydpi="96"
   xmlns:inkscape="http://www.inkscape.org/namespaces/inkscape"
   xmlns:sodipodi="http://sodipodi.sourceforge.net/DTD/sodipodi-0.dtd"
   xmlns="http://www.w3.org/2000/svg"
   xmlns:svg="http://www.w3.org/2000/svg"><sodipodi:namedview
     id="namedview7"
     pagecolor="#ffffff"
     bordercolor="#000000"
     borderopacity="0.25"
     inkscape:showpageshadow="2"
     inkscape:pageopacity="0.0"
     inkscape:pagecheckerboard="0"
     inkscape:deskcolor="#d1d1d1"
     inkscape:document-units="mm"
     showgrid="false"
     inkscape:zoom="0.67351921"
     inkscape:cx="881.93476"
     inkscape:cy="481.05532"
     inkscape:window-width="1280"
     inkscape:window-height="772"
     inkscape:window-x="0"
     inkscape:window-y="28"
     inkscape:window-maximized="0"
     inkscape:current-layer="layer1"
     showguides="true" /><defs
     id="defs2"><linearGradient
       id="linearGradient6508"
       inkscape:swatch="solid"><stop
         style="stop-color:#ffffff;stop-opacity:1;"
         offset="0"
         id="stop6506" /></linearGradient></defs><g
     inkscape:label="Шар 1"
     inkscape:groupmode="layer"
     id="layer1"
     transform="translate(-159.85059,-27.342719)"><g
       id="g8357"
       inkscape:label="Групи товарів"
       transform="translate(0.13550892,-0.22549156)"><g
         id="g8221"
         inkscape:label="Хобі"><g
           style="fill:#7554fa;fill-opacity:1"
           id="g2480"
           transform="matrix(0.02002386,0,0,0.02155695,157.0519,23.558617)"
           inkscape:label="Хобі"><g
             id="g2748"
             style="fill:#7554fa;fill-opacity:1"><path
               d="M 802,186 H 198 c -18,0 -33.33333,6.33333 -46,19 -12.66667,12.66667 -19,28 -19,46 v 498 c 0,18 6.33333,33.33333 19,46 12.66667,12.66667 28,19 46,19 h 604 c 18,0 33.33333,-6.33333 46,-19 12.66667,-12.66667 19,-28 19,-46 V 251 c 0,-18 -6.33333,-33.33333 -19,-46 -12.66667,-12.66667 -28,-19 -46,-19 z m -0.77197,525.1164 c -0.0212,7.74067 -2.23886,26.48298 -8.90553,33.14964 -6.66667,6.66667 -27.80024,12.03326 -37.13357,12.03326 H 690.09446 C 686.76113,749.63264 680,725 672,719 658,707.66667 640,701 618,699 v -45 c 10.66667,3.33333 19.66667,4 27,2 5.33333,-2 9.66667,-5 13,-9 l 3,-5 c 12.66667,8 28,9 46,3 8,-3.33333 15,-9.33333 21,-18 6,-10 9,-22.66667 9,-38 -0.66667,-22 -9.66667,-38 -27,-48 -1.33333,-1.33333 -2.33333,-2.83333 -3,-4.5 -0.66667,-1.66667 -0.33333,-3.5 1,-5.5 4,-6.66667 6.16667,-13.83333 6.5,-21.5 0.33333,-7.66667 -1.5,-15.16667 -5.5,-22.5 -4,-9.33333 -13.66667,-16.66667 -29,-22 -4,-1.33333 -6.33333,-4.33333 -7,-9 -4,-25.33333 -10.66667,-49 -20,-71 -8,-18.66667 -17,-34 -27,-46 -9.33333,-10.66667 -17.33333,-16.33333 -24,-17 -10,-1.33333 -19.66667,18 -29,58 v 4 c -28.66667,15.33333 -47.33333,33.66667 -56,55 -6.66667,14.66667 -8.33333,29.66667 -5,45 0.66667,2.66667 0.16667,5.5 -1.5,8.5 -1.66667,3 -4.16667,4.83333 -7.5,5.5 -15.33333,2.66667 -30.66667,13.33333 -46,32 -10,12 -16.16667,25.33333 -18.5,40 -2.33333,14.66667 -0.16667,28 6.5,40 6.66667,12 17.66667,20.66667 33,26 7.33333,2.66667 16,2.66667 26,0 4.66667,-0.66667 9,-2 13,-4 l 2,5 c 2,4 4.66667,7.33333 8,10 4,4 8.66667,6.66667 14,8 10.66667,3.33333 21,3.66667 31,1 v 43 c -20.66667,2.66667 -38,9.33333 -52,20 -8,6 -19.13899,28.59938 -22.47232,35.26605 H 246.09446 c -9.33333,0 -37.03368,-4.34996 -43.70035,-11.01663 -6.66666,-6.66667 -5.69799,-28.89972 -5.62214,-38.23279 l 3.28339,-404.03326 c 0.0758,-9.33307 1.14437,-35.63263 7.81107,-42.2993 6.66667,-6.66667 26.70586,-11.05374 36.03911,-11.01663 l 511.28339,2.03326 c 9.33325,0.0371 31.59175,3.82587 41.51142,14.06651 9.15281,9.44897 5.64769,38.04914 5.62215,47.38244 z M 256,397 c 0,26 9.16667,48.16667 27.5,66.5 18.33333,18.33333 40.5,27.5 66.5,27.5 26,0 48.16667,-9.16667 66.5,-27.5 18.33333,-18.33333 27.5,-40.33333 27.5,-66 0,-25.66667 -9.16667,-47.66667 -27.5,-66 C 398.16667,313.16667 376,304 350,304 c -26,0 -48.16667,9.16667 -66.5,27.5 C 265.16667,349.83333 256,371.66667 256,397 Z"
               id="path2745"
               sodipodi:nodetypes="sssssssssssssssscccccccccccscsccccccccccsccssccccccccccsssssssssssssssssss"
               style="fill:#7554fa;fill-opacity:1" /></g></g></g></g></g></svg>
