<?xml version="1.0" encoding="UTF-8" standalone="no"?>
<!-- Created with Inkscape (http://www.inkscape.org/) -->

<svg
   width="13.412506mm"
   height="13.4125mm"
   viewBox="0 0 13.412506 13.4125"
   version="1.1"
   id="svg5"
   inkscape:version="1.2.1 (9c6d41e, 2022-07-14)"
   sodipodi:docname="Сайт1.svg"
   xml:space="preserve"
   inkscape:export-filename="../PNG/Сайт1.png"
   inkscape:export-xdpi="96"
   inkscape:export-ydpi="96"
   xmlns:inkscape="http://www.inkscape.org/namespaces/inkscape"
   xmlns:sodipodi="http://sodipodi.sourceforge.net/DTD/sodipodi-0.dtd"
   xmlns="http://www.w3.org/2000/svg"
   xmlns:svg="http://www.w3.org/2000/svg"><sodipodi:namedview
     id="namedview7"
     pagecolor="#ffffff"
     bordercolor="#000000"
     borderopacity="0.25"
     inkscape:showpageshadow="2"
     inkscape:pageopacity="0.0"
     inkscape:pagecheckerboard="0"
     inkscape:deskcolor="#d1d1d1"
     inkscape:document-units="mm"
     showgrid="false"
     inkscape:zoom="0.67351921"
     inkscape:cx="881.93476"
     inkscape:cy="481.05532"
     inkscape:window-width="1280"
     inkscape:window-height="772"
     inkscape:window-x="0"
     inkscape:window-y="28"
     inkscape:window-maximized="0"
     inkscape:current-layer="layer1"
     showguides="true" /><defs
     id="defs2"><linearGradient
       id="linearGradient6508"
       inkscape:swatch="solid"><stop
         style="stop-color:#ffffff;stop-opacity:1;"
         offset="0"
         id="stop6506" /></linearGradient></defs><g
     inkscape:label="Шар 1"
     inkscape:groupmode="layer"
     id="layer1"
     transform="translate(-215.8215,-27.467984)"><g
       id="g8357"
       inkscape:label="Групи товарів"
       transform="translate(0.13550892,-0.22549156)"><g
         id="g8241"
         inkscape:label="Ігри"><g
           style="fill:#7554fa;fill-opacity:1"
           id="g2432"
           transform="matrix(0.83828125,0,0,0.83828125,215.68601,27.693475)"
           inkscape:label="Настільні ігри"><path
             d="M 13.04989,1.0997806 C 14.154456,1.097039 14.853091,1.895434 14.850329,3 l -0.02494,9.975055 C 14.822627,14.079621 14.104566,14.87803 13,14.875274 L 3,14.850329 C 1.8954339,14.847574 1.1247258,14.129515 1.1247258,13.024945 V 2.9750548 C 1.1247258,1.8704853 1.8954339,1.1274675 3,1.1247258 Z M 3,0 C 1.3431458,0 0,1.3431458 0,3 v 10 c 0,1.656854 1.3431458,3 3,3 h 10 c 1.656854,0 3,-1.343146 3,-3 V 3 C 16,1.3431458 14.656854,0 13,0 Z"
             id="path2420"
             sodipodi:nodetypes="ssssssssssssssssss"
             style="fill:#7554fa;fill-opacity:1" /><path
             d="m 5.5,4 a 1.5,1.5 0 1 1 -3,0 1.5,1.5 0 0 1 3,0 z m 8,0 a 1.5,1.5 0 1 1 -3,0 1.5,1.5 0 0 1 3,0 z m 0,8 a 1.5,1.5 0 1 1 -3,0 1.5,1.5 0 0 1 3,0 z m -8,0 a 1.5,1.5 0 1 1 -3,0 1.5,1.5 0 0 1 3,0 z m 4,-4 a 1.5,1.5 0 1 1 -3,0 1.5,1.5 0 0 1 3,0 z"
             id="path2422"
             style="fill:#7554fa;fill-opacity:1" /></g></g></g></g></svg>
