<?xml version="1.0" encoding="UTF-8" standalone="no"?>
<!-- Created with Inkscape (http://www.inkscape.org/) -->

<svg
   width="21.261292mm"
   height="16.845238mm"
   viewBox="0 0 21.261292 16.845238"
   version="1.1"
   id="svg5"
   inkscape:version="1.2.1 (9c6d41e, 2022-07-14)"
   sodipodi:docname="Сайт1.svg"
   xml:space="preserve"
   inkscape:export-filename="../PNG/Сайт1.png"
   inkscape:export-xdpi="96"
   inkscape:export-ydpi="96"
   xmlns:inkscape="http://www.inkscape.org/namespaces/inkscape"
   xmlns:sodipodi="http://sodipodi.sourceforge.net/DTD/sodipodi-0.dtd"
   xmlns="http://www.w3.org/2000/svg"
   xmlns:svg="http://www.w3.org/2000/svg"><sodipodi:namedview
     id="namedview7"
     pagecolor="#ffffff"
     bordercolor="#000000"
     borderopacity="0.25"
     inkscape:showpageshadow="2"
     inkscape:pageopacity="0.0"
     inkscape:pagecheckerboard="0"
     inkscape:deskcolor="#d1d1d1"
     inkscape:document-units="mm"
     showgrid="false"
     inkscape:zoom="0.67351921"
     inkscape:cx="881.93476"
     inkscape:cy="481.05532"
     inkscape:window-width="1280"
     inkscape:window-height="772"
     inkscape:window-x="0"
     inkscape:window-y="28"
     inkscape:window-maximized="0"
     inkscape:current-layer="layer1"
     showguides="true" /><defs
     id="defs2"><linearGradient
       id="linearGradient6508"
       inkscape:swatch="solid"><stop
         style="stop-color:#ffffff;stop-opacity:1;"
         offset="0"
         id="stop6506" /></linearGradient></defs><g
     inkscape:label="Шар 1"
     inkscape:groupmode="layer"
     id="layer1"
     transform="translate(-371.59619,-3.6909081)"><g
       id="g10659"
       inkscape:label="Топ"><g
         style="fill:#ffff3b;fill-opacity:1"
         id="g6241"
         transform="matrix(0.76811082,0,0,0.64789373,369.93706,1.7472269)"
         inkscape:label="Кошик"
         inkscape:export-filename="../yap_store/g6241.svg"
         inkscape:export-xdpi="45.23534"
         inkscape:export-ydpi="45.23534"><path
           d="M 23.78,11 22.35,5.27 A 3,3 0 0 0 19.44,3 H 12.56 A 3,3 0 0 0 9.65,5.27 L 8.22,11 H 2.16 L 6.09,26.73 A 3,3 0 0 0 9,29 h 14 a 3,3 0 0 0 2.91,-2.27 L 29.84,11 Z M 15,21 v 6 H 12.83 L 11.7,21 Z M 11.33,19 10.2,13 H 15 v 6 z M 17,21 h 3.3 l -1.13,6 H 17 Z m 0,-2 v -6 h 4.8 l -1.13,6 z m 6.83,-6 h 3.45 l -1.5,6 H 22.7 Z M 11.59,5.76 a 1,1 0 0 1 1,-0.76 h 6.88 a 1,1 0 0 1 1,0.76 L 21.72,11 H 10.28 Z M 8.17,13 9.3,19 H 6.22 L 4.72,13 Z M 8,26.24 6.72,21 h 3 l 1.12,6 H 9 A 1,1 0 0 1 8,26.24 Z m 15.94,0 A 1,1 0 0 1 23,27 h -1.79 l 1.12,-6 h 3 z"
           id="path6231"
           style="fill:#ffff3b;fill-opacity:1" /></g></g></g></svg>
