<?xml version="1.0" encoding="UTF-8" standalone="no"?>
<!-- Created with Inkscape (http://www.inkscape.org/) -->

<svg
   width="21.261307mm"
   height="16.845245mm"
   viewBox="0 0 21.261307 16.845245"
   version="1.1"
   id="svg70487"
   xml:space="preserve"
   xmlns:inkscape="http://www.inkscape.org/namespaces/inkscape"
   xmlns:sodipodi="http://sodipodi.sourceforge.net/DTD/sodipodi-0.dtd"
   xmlns="http://www.w3.org/2000/svg"
   xmlns:svg="http://www.w3.org/2000/svg"><sodipodi:namedview
     id="namedview70489"
     pagecolor="#ffffff"
     bordercolor="#000000"
     borderopacity="0.25"
     inkscape:showpageshadow="2"
     inkscape:pageopacity="0.0"
     inkscape:pagecheckerboard="0"
     inkscape:deskcolor="#d1d1d1"
     inkscape:document-units="mm"
     showgrid="false" /><defs
     id="defs70484"><linearGradient
       id="linearGradient6508"
       inkscape:swatch="solid"><stop
         style="stop-color:#ffffff;stop-opacity:1;"
         offset="0"
         id="stop6506" /></linearGradient></defs><g
     inkscape:label="Шар 1"
     inkscape:groupmode="layer"
     id="layer1"
     transform="translate(-2.583329,-140.07739)"><path
       d="m 19.189885,145.26054 -1.098398,-3.71244 a 2.3043325,1.9436812 0 0 0 -2.235203,-1.47071 h -5.284602 a 2.3043325,1.9436812 0 0 0 -2.2352024,1.47071 l -1.098399,3.71244 H 2.5833291 l 3.0186755,10.19136 a 2.3043325,1.9436812 0 0 0 2.235203,1.47072 H 18.590759 a 2.3043325,1.9436812 0 0 0 2.235202,-1.47072 l 3.018676,-10.19136 z m -6.744013,6.47893 v 3.88737 h -1.6668 l -0.8679654,-3.88737 z m -2.8189664,-1.29578 -0.867965,-3.88737 h 3.6869314 v 3.88737 z m 4.3551884,1.29578 h 2.534766 l -0.867966,3.88737 h -1.6668 z m 0,-1.29578 v -3.88737 h 3.686932 l -0.867965,3.88737 z m 5.246197,-3.88737 h 2.649982 l -1.152166,3.88737 h -2.365781 z m -9.4016764,-4.69075 a 0.76811082,0.64789373 0 0 1 0.7681104,-0.4924 h 5.284603 a 0.76811082,0.64789373 0 0 1 0.76811,0.4924 l 0.960139,3.39497 H 8.8203886 Z m -2.626939,4.69075 0.867965,3.88737 h -2.365782 l -1.152166,-3.88737 z m -0.130579,8.57812 -0.983182,-3.39497 h 2.304332 l 0.860284,3.88737 h -1.413323 a 0.76811082,0.64789373 0 0 1 -0.768111,-0.4924 z m 12.2436864,0 a 0.76811082,0.64789373 0 0 1 -0.722024,0.4924 H 17.21584 l 0.860285,-3.88737 h 2.304332 z"
       id="path6231"
       style="fill:#ffff3b;fill-opacity:1;stroke-width:0.705446" /></g></svg>
