<?xml version="1.0" encoding="UTF-8" standalone="no"?>
<!-- Created with Inkscape (http://www.inkscape.org/) -->

<svg
   width="148.07127mm"
   height="144.78067mm"
   viewBox="0 0 148.07127 144.78067"
   version="1.1"
   id="svg68348"
   xml:space="preserve"
   inkscape:export-filename="Ава.png"
   inkscape:export-xdpi="500"
   inkscape:export-ydpi="500"
   sodipodi:docname="Ава.svg"
   xmlns:inkscape="http://www.inkscape.org/namespaces/inkscape"
   xmlns:sodipodi="http://sodipodi.sourceforge.net/DTD/sodipodi-0.dtd"
   xmlns="http://www.w3.org/2000/svg"
   xmlns:svg="http://www.w3.org/2000/svg"><sodipodi:namedview
     id="namedview68350"
     pagecolor="#ffffff"
     bordercolor="#000000"
     borderopacity="0.25"
     inkscape:showpageshadow="2"
     inkscape:pageopacity="0.0"
     inkscape:pagecheckerboard="0"
     inkscape:deskcolor="#d1d1d1"
     inkscape:document-units="mm"
     showgrid="false" /><defs
     id="defs68345"><linearGradient
       id="linearGradient6508"
       inkscape:swatch="solid"><stop
         style="stop-color:#ffffff;stop-opacity:1;"
         offset="0"
         id="stop6506" /></linearGradient><style
       id="style2434">.cls-1,.cls-2{fill:none;stroke:#000000;stroke-linecap:round;stroke-linejoin:round;stroke-width:1.5px;}.cls-2{fill-rule:evenodd;}</style></defs><style
     type="text/css"
     id="style2576">
	.st0{fill:#000000;}
</style><path
     d="m 35.994001,82.062177 57.877601,-57.87761 c 0.62177,-0.621768 5.58271,-5.582705 13.434218,-8.268226 10.95375,-3.512344 22.11917,-0.621771 31.00917,8.268226 9.09505,8.89 11.78057,19.84375 8.26823,30.7975 -2.48047,7.85813 -7.64646,13.22917 -8.26823,13.85094 L 76.098222,131.04978 c -10.7487,10.7487 -37.623752,24.59963 -62.42844,0 -24.599635,-24.59964 -10.5436453,-51.679743 0,-62.216773 l 66.7676,-66.9726548 c 2.48047,-2.48046897 6.40954,-2.48046897 8.89,0 2.48047,2.480468 2.48047,6.409531 0,8.8899998 L 22.764834,77.723007 c -1.031875,0.82682 -21.91411426,22.529273 0,44.443383 21.292344,21.29235 42.167969,2.27542 44.443386,0 l 62.21677,-62.428433 c 0,0 3.51234,-3.51235 5.16599,-8.47328 2.07036,-6.61459 0.62177,-12.40235 -5.16599,-18.19011 -12.40235,-12.40234 -24.39459,-2.07036 -26.66339,0 l -57.877599,57.67255 c -2.070365,2.07037 -3.512344,5.58271 0,9.09506 3.512344,3.512343 6.819635,1.858693 8.89,0 l 40.104221,-40.10422 c 2.48047,-2.27542 6.614578,-2.27542 8.889998,0 2.48047,2.48047 2.48047,6.61458 0,9.09505 L 62.664001,108.72556 c -5.582708,5.37766 -16.953177,9.71682 -26.663385,0 -9.921875,-9.716823 -5.582709,-21.292343 0,-26.663383 z"
     id="path680"
     style="fill:#6962d5;fill-opacity:1;stroke-width:6.61458" /></svg>
