<?xml version="1.0" encoding="UTF-8" standalone="no"?>
<!-- Created with Inkscape (http://www.inkscape.org/) -->

<svg
   width="148.07127mm"
   height="144.78069mm"
   viewBox="0 0 148.07127 144.78069"
   version="1.1"
   id="svg5"
   xml:space="preserve"
   xmlns:inkscape="http://www.inkscape.org/namespaces/inkscape"
   xmlns:sodipodi="http://sodipodi.sourceforge.net/DTD/sodipodi-0.dtd"
   xmlns="http://www.w3.org/2000/svg"
   xmlns:svg="http://www.w3.org/2000/svg"><sodipodi:namedview
     id="namedview7"
     pagecolor="#ffffff"
     bordercolor="#000000"
     borderopacity="0.25"
     inkscape:showpageshadow="2"
     inkscape:pageopacity="0.0"
     inkscape:pagecheckerboard="0"
     inkscape:deskcolor="#d1d1d1"
     inkscape:document-units="mm"
     showgrid="false" /><defs
     id="defs2" /><g
     inkscape:label="Шар 1"
     inkscape:groupmode="layer"
     id="layer1"
     transform="translate(-26.013091,-1.8596631)"><g
       style="fill:#7554fa;fill-opacity:1"
       id="g689"
       transform="matrix(6.6145833,0,0,6.6145833,25.831934,-26.462329)"><path
         d="m 5.469,16.688 8.75,-8.75 c 0.094,-0.094 0.844,-0.844 2.031,-1.25 1.656,-0.531 3.344,-0.094 4.688,1.25 1.375,1.344 1.781,3 1.25,4.656 -0.375,1.188 -1.156,2 -1.25,2.094 l -9.406,9.406 c -1.625,1.625 -5.688,3.719 -9.438,0 -3.719,-3.719 -1.594,-7.813 0,-9.406 L 12.188,4.563 c 0.375,-0.375 0.969,-0.375 1.344,0 0.375,0.375 0.375,0.969 0,1.344 L 3.469,16.032 c -0.156,0.125 -3.313,3.406 0,6.719 3.219,3.219 6.375,0.344 6.719,0 l 9.406,-9.438 c 0,0 0.531,-0.531 0.781,-1.281 0.313,-1 0.094,-1.875 -0.781,-2.75 -1.875,-1.875 -3.688,-0.313 -4.031,0 l -8.75,8.719 c -0.313,0.313 -0.531,0.844 0,1.375 0.531,0.531 1.031,0.281 1.344,0 l 6.063,-6.063 c 0.375,-0.344 1,-0.344 1.344,0 0.375,0.375 0.375,1 0,1.375 l -6.063,6.031 c -0.844,0.813 -2.563,1.469 -4.031,0 -1.5,-1.469 -0.844,-3.219 0,-4.031 z"
         id="path680"
         style="fill:#7554fa;fill-opacity:1" /></g></g></svg>
