<?xml version="1.0" encoding="UTF-8" standalone="no"?>
<!-- Created with Inkscape (http://www.inkscape.org/) -->

<svg
   width="118.40103mm"
   height="119.0625mm"
   viewBox="0 0 118.40103 119.0625"
   version="1.1"
   id="svg5"
   xml:space="preserve"
   xmlns:inkscape="http://www.inkscape.org/namespaces/inkscape"
   xmlns:sodipodi="http://sodipodi.sourceforge.net/DTD/sodipodi-0.dtd"
   xmlns="http://www.w3.org/2000/svg"
   xmlns:svg="http://www.w3.org/2000/svg"><sodipodi:namedview
     id="namedview7"
     pagecolor="#ffffff"
     bordercolor="#000000"
     borderopacity="0.25"
     inkscape:showpageshadow="2"
     inkscape:pageopacity="0.0"
     inkscape:pagecheckerboard="0"
     inkscape:deskcolor="#d1d1d1"
     inkscape:document-units="mm"
     showgrid="false"
     inkscape:lockguides="true" /><defs
     id="defs2" /><g
     inkscape:label="Шар 1"
     inkscape:groupmode="layer"
     id="layer1"
     transform="translate(-41.477448,-97.778073)"><g
       style="fill:#ff0000;fill-opacity:1"
       id="g2628"
       transform="matrix(6.6145833,0,0,6.6145833,-4.8246371,51.475993)"><path
         d="m 18.8,16 5.5,-5.5 c 0.8,-0.8 0.8,-2 0,-2.8 v 0 C 24,7.3 23.5,7 23,7 22.5,7 22,7.2 21.6,7.6 L 16,13.2 10.5,7.7 C 9.7,6.9 8.4,6.9 7.7,7.7 7.3,8 7,8.5 7,9.1 c 0,0.6 0.2,1 0.6,1.4 L 13.1,16 7.6,21.5 C 7.3,21.9 7,22.4 7,23 7,23.5 7.2,24 7.6,24.4 8,24.8 8.5,25 9,25 c 0.5,0 1,-0.2 1.4,-0.6 l 5.5,-5.5 5.5,5.5 c 0.8,0.8 2.1,0.8 2.8,0 0.8,-0.8 0.8,-2.1 0,-2.8 z"
         id="path2619"
         style="fill:#ff0000;fill-opacity:1" /></g></g></svg>
