<?xml version="1.0" encoding="UTF-8" standalone="no"?>
<!-- Created with Inkscape (http://www.inkscape.org/) -->

<svg
   width="125.33604mm"
   height="125.91032mm"
   viewBox="0 0 125.33604 125.91032"
   version="1.1"
   id="svg68348"
   xml:space="preserve"
   inkscape:export-filename="Ава.png"
   inkscape:export-xdpi="500"
   inkscape:export-ydpi="500"
   sodipodi:docname="Ава.svg"
   xmlns:inkscape="http://www.inkscape.org/namespaces/inkscape"
   xmlns:sodipodi="http://sodipodi.sourceforge.net/DTD/sodipodi-0.dtd"
   xmlns="http://www.w3.org/2000/svg"
   xmlns:svg="http://www.w3.org/2000/svg"><sodipodi:namedview
     id="namedview68350"
     pagecolor="#ffffff"
     bordercolor="#000000"
     borderopacity="0.25"
     inkscape:showpageshadow="2"
     inkscape:pageopacity="0.0"
     inkscape:pagecheckerboard="0"
     inkscape:deskcolor="#d1d1d1"
     inkscape:document-units="mm"
     showgrid="false" /><defs
     id="defs68345"><linearGradient
       id="linearGradient6508"
       inkscape:swatch="solid"><stop
         style="stop-color:#ffffff;stop-opacity:1;"
         offset="0"
         id="stop6506" /></linearGradient></defs><g
     inkscape:label="Шар 1"
     inkscape:groupmode="layer"
     id="layer1"
     transform="translate(-0.10083736,-48.710974)"><rect
       style="fill:#ffffff;fill-opacity:1;stroke:none;stroke-width:17.2039;stroke-linecap:square;stroke-linejoin:round;stroke-opacity:1"
       id="rect111684"
       width="119.25694"
       height="122.08849"
       x="3.2952673"
       y="50.802681"
       ry="17.602671" /><path
       style="fill:#6962d5;fill-opacity:1;stroke:none;stroke-width:0.173992"
       d="M 19.430711,48.891909 C 10.88998,50.025064 3.701029,55.28398 1.181277,63.83712 0.17425903,67.255413 0.36298103,70.794909 0.36298103,74.315718 v 14.495396 49.598696 c 0,8.87032 -1.73337703,19.59761 3.71442797,27.24436 1.02288,1.43575 2.224389,2.79954 3.565978,3.94012 6.995569,5.94731 15.730183,4.96669 24.26802,4.96669 h 50.096127 16.120894 c 3.151552,0 6.412652,0.24381 9.533862,-0.25132 8.01227,-1.27122 14.98914,-7.44032 16.87426,-15.46658 0.81124,-3.45391 0.6334,-6.95586 0.6334,-10.47859 V 133.69444 85.143604 c 0,-9.044253 1.80433,-20.072472 -3.96923,-27.768288 -1.11389,-1.484643 -2.38623,-2.855243 -3.83122,-4.016132 -7.0171,-5.637303 -15.86504,-4.54139 -24.268009,-4.54139 H 43.872074 27.751175 c -2.722005,0 -5.62134,-0.283988 -8.320464,0.07412 m 0.173343,3.119325 c 2.649548,-0.319266 5.478679,-0.04986 8.147121,-0.04986 h 15.774213 48.362693 c 9.604589,0 20.147139,-1.553557 26.712339,7.160376 3.39128,4.501134 3.44935,9.639961 3.44935,15.019325 v 12.225024 46.455116 14.84469 c 0,2.94589 0.22343,5.98904 -0.22466,8.90681 -1.1529,7.5046 -7.29149,13.47198 -14.68285,14.62201 -3.00507,0.46769 -6.15142,0.22267 -9.187169,0.22267 H 82.180877 33.29815 c -9.657284,0 -20.212261,1.48115 -26.620596,-7.50966 -3.131857,-4.39403 -3.1944,-9.32561 -3.1944,-14.4954 V 137.01267 90.033614 75.188935 c 0,-2.868691 -0.280659,-5.906612 0.288634,-8.732166 1.603683,-7.959282 7.908237,-13.49069 15.832266,-14.445535 M 81.487505,112.5626 c 3.385736,0.01 6.364466,0.52847 9.707206,-0.4752 1.88719,-0.56655 3.63189,-1.44867 5.20029,-2.65074 4.491659,-3.44239 5.461169,-10.967245 0.17335,-14.256646 -3.12486,-1.94379 -7.27278,-1.63345 -10.747271,-1.17885 -1.961896,0.25672 -4.588563,0.0346 -6.009976,1.63728 -1.070392,1.207311 -1.253443,3.171351 -1.580714,4.699126 -0.685225,3.19824 -1.375476,6.39683 -2.012513,9.60538 -0.670837,3.37918 -1.374783,6.75031 -2.045446,10.12932 -0.253081,1.27541 -0.713307,2.94221 0.418449,3.94169 1.412226,1.24748 3.725315,0.23682 4.620111,-1.15002 0.672224,-1.04192 0.756643,-2.47016 0.993776,-3.66489 0.436651,-2.19876 0.997762,-4.41289 1.282738,-6.63645 m -41.60232,-5.93787 c -0.903811,-2.6916 -1.914573,-5.37605 -2.913549,-8.033595 -0.419664,-1.11649 -0.64917,-2.519051 -1.385357,-3.474521 -1.54882,-2.01015 -4.877179,-0.38265 -5.040815,1.902731 -0.09569,1.33445 0.688692,2.79412 1.137303,4.016795 0.985282,2.68479 2.018407,5.35177 3.010795,8.0336 0.413077,1.11596 1.218602,2.47102 1.270951,3.6675 0.108166,2.47103 -1.126903,5.58265 -1.592156,8.0336 -0.26244,1.3823 -0.30959,2.95059 1.353289,3.39541 1.730657,0.46316 3.526837,-0.5049 4.143244,-2.17291 1.105062,-2.99059 0.7114,-6.76236 2.122413,-9.60538 0.664597,-1.33916 1.934681,-2.5395 2.898294,-3.66751 1.999858,-2.34127 4.028838,-4.65512 6.040658,-6.98574 1.307353,-1.51432 4.838869,-4.551375 2.754073,-6.751696 -1.541366,-1.62664 -3.722368,-0.36012 -4.884979,0.98865 -3.012875,3.495491 -5.812364,7.250146 -8.914164,10.653066 m 42.815722,0 1.386744,-6.636445 c 2.46407,-0.46123 5.99316,-0.95931 8.32029,0.198745 1.50947,0.75113 2.43616,3.02656 1.31169,4.50964 -2.43651,3.21361 -7.65084,2.19579 -11.018724,1.92806 m -19.761103,14.32075 c 0.0025,3.63834 4.347442,4.57583 5.386807,0.87322 1.180813,-4.20594 1.880079,-8.64275 2.759794,-12.92361 0.292083,-1.42142 1.18896,-3.67414 0.489521,-5.06395 -0.979735,-1.94675 -2.617133,-0.78922 -4.129204,-1.20644 -1.360569,-0.37531 -2.506886,-1.05904 -3.986889,-1.01939 -5.625154,0.15089 -10.280454,4.92057 -12.609143,9.73479 -1.404772,2.9045 -2.407388,6.94277 -0.754736,9.95467 2.847679,5.19004 9.529011,2.72461 12.84385,-0.34929 m -0.693372,-13.56525 c 3.878203,-0.64652 2.9841,2.54054 2.463377,5.00773 -0.600634,2.84528 -3.404283,5.75502 -6.450266,6.17277 -2.593211,0.35557 -3.382789,-2.15598 -2.735179,-4.2517 0.878155,-2.84179 3.651123,-6.41691 6.722068,-6.9288 z"
       id="path110178" /></g></svg>
