<?xml version="1.0" encoding="UTF-8" standalone="no"?>
<!-- Created with Inkscape (http://www.inkscape.org/) -->

<svg
   width="13.875168mm"
   height="12.663714mm"
   viewBox="0 0 13.875168 12.663714"
   version="1.1"
   id="svg3651"
   inkscape:version="1.2.1 (9c6d41e, 2022-07-14)"
   sodipodi:docname="Сайт1_Список_Бажань.svg"
   inkscape:export-filename="Сайт1_Список_Бажань.png"
   inkscape:export-xdpi="96"
   inkscape:export-ydpi="96"
   xmlns:inkscape="http://www.inkscape.org/namespaces/inkscape"
   xmlns:sodipodi="http://sodipodi.sourceforge.net/DTD/sodipodi-0.dtd"
   xmlns="http://www.w3.org/2000/svg"
   xmlns:svg="http://www.w3.org/2000/svg">
  <sodipodi:namedview
     id="namedview3653"
     pagecolor="#ffffff"
     bordercolor="#000000"
     borderopacity="0.25"
     inkscape:showpageshadow="2"
     inkscape:pageopacity="0.0"
     inkscape:pagecheckerboard="0"
     inkscape:deskcolor="#d1d1d1"
     inkscape:document-units="mm"
     showgrid="false"
     inkscape:zoom="0.47625"
     inkscape:cx="743.30709"
     inkscape:cy="424.14698"
     inkscape:window-width="1280"
     inkscape:window-height="772"
     inkscape:window-x="0"
     inkscape:window-y="28"
     inkscape:window-maximized="0"
     inkscape:current-layer="layer1" />
  <defs
     id="defs3648" />
  <g
     inkscape:label="Шар 1"
     inkscape:groupmode="layer"
     id="layer1"
     transform="translate(-35.380799,-6.2965706)">
    <g
       id="g8189"
       inkscape:label="Топ"
       transform="translate(0,0.12842751)">
      <g
         style="fill:none;stroke:#ffff3b;stroke-opacity:1"
         id="g2362"
         transform="matrix(0.73974346,0,0,0.70208762,94.315415,4.0801909)"
         inkscape:label="Список бажань">
        <path
           d="m -71.24172,4.6649022 c 0.2994,-0.92131 1.6028,-0.92131 1.9022,0 l 1.294,3.98278 c 0.1339,0.41202 0.5179,0.69098 0.9511,0.69098 h 4.1877 c 0.9688,0 1.3715,1.2395898 0.5878,1.8089898 l -3.3879,2.4615 c -0.3505,0.2547 -0.4972,0.706 -0.3633,1.1181 l 1.2941,3.9827 c 0.2993,0.9213 -0.7551,1.6875 -1.5389,1.1181 l -3.3879,-2.4615 c -0.3505,-0.2547 -0.8251,-0.2547 -1.1756,0 l -3.38794,2.4615 c -0.78372,0.5694 -1.83819,-0.1968 -1.53884,-1.1181 l 1.29408,-3.9827 c 0.13388,-0.4121 -0.01278,-0.8634 -0.36327,-1.1181 l -3.38796,-2.4615 c -0.78371,-0.5694 -0.38093,-1.8089898 0.58779,-1.8089898 h 4.18774 c 0.43323,0 0.81719,-0.27896 0.95106,-0.69098 z"
           stroke="#000000"
           stroke-width="2"
           stroke-linecap="round"
           stroke-linejoin="round"
           id="path2353"
           style="fill:#ffff3b;fill-opacity:1;stroke:#ffff3b;stroke-opacity:1" />
      </g>
    </g>
  </g>
</svg>
