<?xml version="1.0" encoding="UTF-8" standalone="no"?>
<!-- Created with Inkscape (http://www.inkscape.org/) -->

<svg
   width="13.833406mm"
   height="12.671982mm"
   viewBox="0 0 13.833406 12.671982"
   version="1.1"
   id="svg70487"
   xml:space="preserve"
   xmlns:inkscape="http://www.inkscape.org/namespaces/inkscape"
   xmlns:sodipodi="http://sodipodi.sourceforge.net/DTD/sodipodi-0.dtd"
   xmlns="http://www.w3.org/2000/svg"
   xmlns:svg="http://www.w3.org/2000/svg"><sodipodi:namedview
     id="namedview70489"
     pagecolor="#ffffff"
     bordercolor="#000000"
     borderopacity="0.25"
     inkscape:showpageshadow="2"
     inkscape:pageopacity="0.0"
     inkscape:pagecheckerboard="0"
     inkscape:deskcolor="#d1d1d1"
     inkscape:document-units="mm"
     showgrid="false" /><defs
     id="defs70484"><linearGradient
       id="linearGradient6508"
       inkscape:swatch="solid"><stop
         style="stop-color:#ffffff;stop-opacity:1;"
         offset="0"
         id="stop6506" /></linearGradient></defs><g
     inkscape:label="Шар 1"
     inkscape:groupmode="layer"
     id="layer1"
     transform="translate(-6.4058482,-135.24435)"><path
       d="m 12.618986,136.41776 c 0.221479,-0.64684 1.185661,-0.64684 1.40714,0 l 0.957228,2.79627 c 0.09905,0.28927 0.383113,0.48512 0.70357,0.48512 h 3.097824 c 0.716664,0 1.014558,0.8703 0.434821,1.27007 l -2.506177,1.72819 c -0.25928,0.17882 -0.367801,0.49568 -0.268749,0.78501 l 0.957303,2.7962 c 0.221405,0.64683 -0.55858,1.18477 -1.138392,0.785 l -2.506177,-1.72818 c -0.25928,-0.17883 -0.610362,-0.17883 -0.869642,0 l -2.506207,1.72818 c -0.5797511,0.39977 -1.3597883,-0.13817 -1.1383461,-0.785 l 0.9572871,-2.7962 c 0.09904,-0.28933 -0.0095,-0.60619 -0.2687265,-0.78501 l -2.5062214,-1.72819 c -0.5797443,-0.39977 -0.2817905,-1.27007 0.4348139,-1.27007 h 3.097853 c 0.320479,0 0.604511,-0.19585 0.70354,-0.48512 z"
       stroke="#000000"
       stroke-width="1.44134"
       stroke-linecap="round"
       stroke-linejoin="round"
       id="path2353"
       style="fill:#ffff3b;fill-opacity:1;stroke:#ffff3b;stroke-opacity:1" /></g></svg>
