<?xml version="1.0" encoding="UTF-8" standalone="no"?>
<!-- Created with Inkscape (http://www.inkscape.org/) -->

<svg
   width="51.594879mm"
   height="46.812695mm"
   viewBox="0 0 51.594879 46.812695"
   version="1.1"
   id="svg5"
   inkscape:version="1.2.1 (9c6d41e, 2022-07-14)"
   sodipodi:docname="Сайт1.svg"
   xml:space="preserve"
   inkscape:export-filename="../PNG/Сайт1.png"
   inkscape:export-xdpi="96"
   inkscape:export-ydpi="96"
   xmlns:inkscape="http://www.inkscape.org/namespaces/inkscape"
   xmlns:sodipodi="http://sodipodi.sourceforge.net/DTD/sodipodi-0.dtd"
   xmlns="http://www.w3.org/2000/svg"
   xmlns:svg="http://www.w3.org/2000/svg"><sodipodi:namedview
     id="namedview7"
     pagecolor="#ffffff"
     bordercolor="#000000"
     borderopacity="0.25"
     inkscape:showpageshadow="2"
     inkscape:pageopacity="0.0"
     inkscape:pagecheckerboard="0"
     inkscape:deskcolor="#d1d1d1"
     inkscape:document-units="mm"
     showgrid="false"
     inkscape:zoom="0.67351921"
     inkscape:cx="881.93476"
     inkscape:cy="481.05532"
     inkscape:window-width="1280"
     inkscape:window-height="772"
     inkscape:window-x="0"
     inkscape:window-y="28"
     inkscape:window-maximized="0"
     inkscape:current-layer="layer1"
     showguides="true" /><defs
     id="defs2"><linearGradient
       id="linearGradient6508"
       inkscape:swatch="solid"><stop
         style="stop-color:#ffffff;stop-opacity:1;"
         offset="0"
         id="stop6506" /></linearGradient><clipPath
       clipPathUnits="userSpaceOnUse"
       id="clipPath6176"><path
         id="path6178"
         style="fill:#ffff3b;fill-opacity:1;stroke-width:0.291571;paint-order:fill markers stroke"
         d="m 31.751035,62.479391 v 20.59926 c 0.0039,5.29e-4 0.0078,0.0016 0.01188,0.0026 0.04076,0.0099 0.08222,0.01863 0.122989,0.02842 0.02598,0.0065 0.05175,0.01183 0.07752,0.01913 0.0081,0.0024 0.01511,0.0052 0.0217,0.0083 0.07934,0.0066 0.158496,0.01405 0.237196,0.02635 0.07159,0.01106 0.141933,0.02853 0.211873,0.04702 0.09867,0.02241 0.200224,0.02864 0.300758,0.03824 0.116776,0.0123 0.233711,0.02466 0.350882,0.03256 0.01495,0.0011 0.0274,0.0041 0.03824,0.0083 0.07235,2.65e-4 0.144696,0.0033 0.217041,0.0057 0.0271,0.0011 0.05409,0.0019 0.08113,0.0026 0.0105,-0.0043 0.02294,-0.0074 0.03773,-0.0083 0.0034,-1.94e-4 0.0067,-3e-5 0.01035,0 0.04367,2.64e-4 0.08743,0.0057 0.130741,0.01085 0.0073,7.93e-4 0.01439,0.0019 0.0217,0.0026 0.0072,7.94e-4 0.01397,0.0021 0.02016,0.0036 1.7e-4,-1.3e-5 2.65e-4,1.1e-5 5.29e-4,0 0.03737,-0.0026 0.07473,-0.0054 0.112139,-0.0072 0.02241,-0.0011 0.04479,-0.0013 0.06718,-0.0021 0.0098,-0.0036 0.02148,-0.006 0.03462,-0.0067 0.0034,-1.9e-4 0.0067,-3.7e-5 0.01035,0 0.04085,5.3e-4 0.08166,0.0011 0.122473,0.0016 0.0095,-2.17e-4 0.01894,-7.94e-4 0.02842,-0.0011 0.02019,-2.65e-4 0.04027,-1.01e-4 0.06046,-5.3e-4 0.0089,-1.72e-4 0.01553,0.0019 0.02273,0.0031 0.06122,7.94e-4 0.122584,0.0016 0.183451,0.0072 0.0013,1.33e-4 0.0027,2.25e-4 0.0041,5.29e-4 2.62e-4,4.3e-5 7.94e-4,-4.2e-5 0.0011,0 0.01,-1.4e-4 0.01998,1.6e-5 0.02997,0 h 5.29e-4 c 0.11575,-1.72e-4 0.11575,0.116581 0,0.11679 -0.0069,1.3e-5 -0.01381,-8.5e-5 -0.02066,0 -0.01032,0.0097 -0.02442,0.01773 -0.04444,0.02119 h 35.06401 V 62.479515 Z m 0,20.77961 v 0.180351 h 0.542602 c -0.01005,-0.0019 -0.0199,-0.0038 -0.02997,-0.0057 -0.132279,-0.0245 -0.265094,-0.04527 -0.398426,-0.06305 -0.06081,-0.0081 -0.08038,-0.0431 -0.06925,-0.07234 -0.01683,-0.01021 -0.03054,-0.0254 -0.04496,-0.03927 z m 0.82682,0.09198 c 0.0141,0.0045 0.0258,0.008 0.03153,0.01035 0.0065,0.0026 0.01429,0.0044 0.02222,0.0062 0.01143,-0.0041 0.02474,-0.0071 0.04082,-0.0072 -0.03151,-0.0028 -0.06305,-0.006 -0.09457,-0.0093 z m 1.275892,0.06253 c -0.03082,0.0011 -0.06167,0.0013 -0.0925,0.0026 -0.125566,0.0061 -0.251288,0.01397 -0.376719,0.02326 h 0.472837 c -5.29e-4,-0.0064 -0.0016,-0.01265 -0.0021,-0.01913 v -5.29e-4 c -5.29e-4,-0.0024 -0.0011,-0.004 -0.0016,-0.0062 z" /></clipPath></defs><g
     inkscape:label="Шар 1"
     inkscape:groupmode="layer"
     id="layer1"
     transform="translate(-19.228182,-33.298251)"><g
       id="g21634"
       inkscape:label="Меню"><g
         id="g12360"
         transform="translate(-5.0000956,21.675941)"
         inkscape:label="Ава"><path
           id="rect2625"
           style="fill:#7554fa;fill-opacity:1;stroke-width:0.291571;paint-order:fill markers stroke"
           d="m 33.22411,11.62231 c -4.983666,0 -8.995833,4.012167 -8.995833,8.995833 v 28.560014 c 0,4.983667 4.012167,8.995833 8.995833,8.995833 h 33.603117 c 0.0028,0 0.0055,3e-6 0.0083,0 0.0017,-0.0031 0.0035,-0.006 0.0057,-0.0098 -6.71e-4,-0.0011 -0.0017,-0.0022 -0.0031,-0.0026 0.0016,5e-6 0.0031,-5e-6 0.0047,0 0.0025,-0.0045 0.0104,2e-6 0.0155,0 0.0293,-1.7e-5 0.05855,4e-6 0.08785,0 0.0064,1e-4 0.01273,4.02e-4 0.01912,5.17e-4 10e-4,1.8e-5 0.0021,-1.9e-5 0.0031,0 -0.0018,-0.01343 0.0034,-0.01341 0.01654,-0.0155 0.04285,-0.0037 0.08571,-0.004 0.128675,-0.0057 0.03181,0 0.06379,1.3e-5 0.0956,0 0.05434,-1.7e-5 0.108948,5.7e-5 0.163298,0 0.05683,-6.5e-5 0.113195,-5.54e-4 0.170015,-10e-4 0.02323,-4.09e-4 0.04655,-0.0012 0.06976,-0.0021 4.613018,-0.395544 8.210869,-4.24077 8.210869,-8.95966 V 20.618143 c 0,-4.983666 -4.012167,-8.995833 -8.995834,-8.995833 z" /><circle
           style="fill:#ffff3b;fill-opacity:1;stroke-width:0.492829;paint-order:fill markers stroke"
           id="path3080"
           cx="50.02562"
           cy="30.577145"
           r="9" /><path
           id="path-1-2"
           style="fill:#ffff3b;fill-opacity:1;fill-rule:nonzero;stroke:none;stroke-width:1.102;paint-order:fill markers stroke"
           d="m 50.639803,62.479907 c -1.62403,-0.01064 -3.214337,0.258403 -4.704106,0.737423 -2.323338,0.747042 -4.357902,1.986742 -5.981547,3.445268 -2.592187,2.295032 -4.299081,4.990743 -5.43326,7.331335 -1.952284,4.028908 -2.659442,8.117294 -2.693375,8.290967 -0.02914,0.149144 -0.0514,0.267316 -0.05478,0.285254 a 1.3229167,1.3229167 0 0 0 0.06046,0.698665 c 0.01305,7.33e-4 0.0272,0.0036 0.04237,0.0088 0.01557,0.0053 0.03132,0.0096 0.04703,0.01447 0.176312,-0.01006 0.3527,-0.01851 0.529167,-0.02635 0.108913,-0.0054 0.218093,-0.0077 0.327112,-0.0093 l 0.04134,-5.17e-4 c 0.115791,-0.0014 0.117296,0.115389 0.0016,0.116789 -0.0137,1.7e-4 -0.02764,3.47e-4 -0.04134,5.17e-4 -0.107864,0.0016 -0.215737,0.004 -0.323494,0.0093 -0.02521,0.0011 -0.05024,0.002 -0.07545,0.0031 0.02586,0.0016 0.05166,0.0034 0.07751,0.0052 0.137655,0.0099 0.208484,0.0136 0.343131,0.02739 0.05899,0.006 0.118632,0.01192 0.177767,0.02119 0.0567,-8.64e-4 0.113416,-0.0012 0.170016,-0.0031 0.130413,-0.005 0.260639,-0.01244 0.390673,-0.02377 0.160382,-0.01301 0.320687,-0.02402 0.481625,-0.02429 0.02299,-3.9e-5 0.04624,7.9e-5 0.06925,5.16e-4 0.01453,5.83e-4 0.0898,0.0028 0.162264,0.0083 A 1.3229167,1.3229167 0 0 0 34.373139,83.0591 c 0.0032,-0.0168 0.02392,-0.127224 0.05116,-0.266651 0.03777,-0.193289 0.694199,-3.964037 2.477885,-7.645011 1.032751,-2.131277 2.551153,-4.508568 4.809009,-6.50658 0.0026,-0.0023 0.0052,-0.0044 0.0078,-0.0067 1.366868,-1.228653 3.08078,-2.272365 5.026566,-2.898015 1.813683,-0.583165 3.76464,-0.780453 5.686991,-0.452169 0.006,0.001 0.01212,0.0022 0.01809,0.0031 2.080285,0.326023 4.010156,1.200493 5.710763,2.427759 1.789305,1.291283 3.267161,2.930023 4.390429,4.632275 2.733554,4.082745 3.760469,8.566147 4.150135,10.468612 a 1.3229834,1.3229834 0 0 0 0.136426,0.350366 c 0.0274,-1.1e-5 0.05476,4e-6 0.08217,0 0.0064,10e-5 0.01273,4.02e-4 0.01912,5.17e-4 0.001,1.8e-5 0.0021,-1.9e-5 0.0031,0 -0.0018,-0.01343 0.0034,-0.01341 0.01654,-0.0155 0.04285,-0.0037 0.08571,-0.004 0.128675,-0.0057 0.03181,0 0.06379,1.3e-5 0.0956,0 0.05434,-1.5e-5 0.108948,5.7e-5 0.163298,0 0.05683,-6.3e-5 0.113195,-6.2e-4 0.170015,-0.001 0.02843,-5e-4 0.05686,-0.0013 0.08527,-0.0026 0.06946,-0.0028 0.139243,-0.0052 0.208773,-0.0047 h 0.323494 c 0.06059,2e-6 0.121321,-2e-6 0.181901,0 0.04454,-0.0034 0.08947,-0.0077 0.133842,-0.01292 -5.9e-5,-3.19e-4 5.8e-5,-8.8e-4 0,-0.001 -5e-4,-0.0027 0.0052,-0.002 0.0078,-0.0031 0.06289,-0.0138 0.127326,-0.01881 0.190686,-0.02997 0.03722,-0.0061 0.06906,-0.01122 0.105937,-0.01912 0.04683,-0.01 0.09239,-0.0237 0.137976,-0.03824 0.0016,-0.0037 0.0072,-0.0063 0.01395,-0.0093 9.04e-4,-0.0022 0.0038,-0.0027 0.0072,-0.0031 0.0018,-8.33e-4 0.0033,-0.0016 0.0052,-0.0026 0.04955,-0.02307 0.09891,-0.04685 0.147794,-0.07131 0.04198,-0.02052 0.08426,-0.04027 0.127124,-0.05891 0.01908,-0.0084 0.0382,-0.01662 0.05736,-0.02481 0.0049,-0.0033 0.0096,-0.0064 0.01447,-0.0098 0.0056,-0.0042 0.0122,-0.0076 0.0186,-0.01033 3.52e-4,-9.8e-5 8.55e-4,-3.84e-4 10e-4,-5.17e-4 a 1.3229834,1.3229834 0 0 0 0.0088,-0.557589 C 68.888942,80.307192 67.781905,75.402921 64.755347,70.882599 63.485296,68.957867 61.793045,67.073256 59.70966,65.569745 57.727993,64.13965 55.418315,63.07543 52.86925,62.674315 52.123302,62.547436 51.378123,62.484849 50.639929,62.480011 Z m 18.630904,20.419942 c -0.0031,0.0021 -0.0062,0.0041 -0.0093,0.0062 0.0024,-1.19e-4 0.0048,-4.62e-4 0.0072,-5.17e-4 a 1.3229834,1.3229834 0 0 0 0.0021,-0.0057 z m -0.02274,0.04858 c -0.0012,1.56e-4 -0.0024,3.74e-4 -0.0036,5.17e-4 1.98e-4,6.89e-4 3.41e-4,0.0014 5.17e-4,0.0021 0.0011,-8.37e-4 0.002,-0.0017 0.0031,-0.0026 z m -0.02015,0.0155 c -0.0085,0.003 -0.01685,0.0059 -0.02584,0.0088 -8.74e-4,3.14e-4 -0.0017,8.91e-4 -0.0026,0.001 -0.0024,7.81e-4 -0.004,0.0012 -0.0067,0.0021 -8.5e-4,3.11e-4 -0.0017,8.57e-4 -0.0026,10e-4 -3.2e-4,2.31e-4 -8e-4,2.91e-4 -0.001,5.17e-4 0.002,-2.31e-4 0.0041,-4.83e-4 0.0062,-5.17e-4 0.0022,-3.5e-5 0.0041,5.9e-5 0.0062,5.17e-4 0.0092,-0.0039 0.01825,-0.0081 0.02636,-0.01344 z m -1.551327,0.216524 c -0.01034,3.5e-4 -0.02067,7.88e-4 -0.03101,0.001 0.0093,1.19e-4 0.0186,3.16e-4 0.02791,5.17e-4 0.001,-3.95e-4 0.0019,-0.0012 0.0031,-0.0016 z m -0.448551,0.0062 c 0.002,0.0077 0.0033,0.01335 0.0047,0.01809 0.0083,-0.006 0.015,-0.01042 0.0248,-0.01809 -0.0098,4.2e-5 -0.01964,6e-6 -0.02945,0 z m -0.333313,0.06563 a 1.3229834,1.3229834 0 0 0 5.17e-4,5.16e-4 c 4.96e-4,-2.43e-4 10e-4,-2.77e-4 0.0015,-5.16e-4 -6.82e-4,3e-6 -0.0014,10e-7 -0.0021,0 z m 0.06098,0.04702 c -0.0081,8.05e-4 -0.0162,0.0019 -0.02429,0.0026 a 1.3229834,1.3229834 0 0 0 0.01964,0.02584 c 0.0036,-0.0053 0.0063,-0.0111 0.01085,-0.0155 9.99e-4,-9.64e-4 0.0039,-0.0015 0.0057,-0.0026 -0.0041,-0.003 -0.0079,-0.0066 -0.01137,-0.01034 z"
           clip-path="url(#clipPath6176)"
           transform="translate(0.02561981,-25.004395)" /><path
           id="path3783"
           style="fill:#ffff3b;fill-opacity:1;stroke-width:0.291571;paint-order:fill markers stroke"
           d="m 51.030259,38.354528 c -7.119623,-0.06293 -14.379657,6.49905 -16.998963,19.925398 15.577539,-0.0449 16.220402,-0.135708 32.801099,-0.100251 0.0024,-0.0044 0.0052,-0.0092 0.0088,-0.01551 -7.94e-4,-0.0011 -0.0019,-0.0021 -0.0031,-0.0026 0.0016,5e-6 0.0031,-6e-6 0.0047,0 0.0026,-0.0045 0.0104,2e-6 0.0155,0 0.0293,-1.9e-5 0.05855,2e-6 0.08785,0 0.0064,10e-5 0.01273,5.29e-4 0.01913,5.29e-4 0.0011,1.8e-5 0.0021,-1.9e-5 0.0031,0 -0.0019,-0.01344 0.0034,-0.01341 0.01654,-0.0155 0.04285,-0.0037 0.08571,-0.004 0.128675,-0.0057 0.02236,0 0.04478,2e-6 0.06718,0 C 65.114479,45.092608 58.142753,38.41734 51.030275,38.354473 Z" /></g></g></g></svg>
