<?xml version="1.0" encoding="UTF-8" standalone="no"?>
<!-- Created with Inkscape (http://www.inkscape.org/) -->

<svg
   width="22.363823mm"
   height="10.828892mm"
   viewBox="0 0 22.363823 10.828892"
   version="1.1"
   id="svg5"
   inkscape:version="1.2.1 (9c6d41e, 2022-07-14)"
   sodipodi:docname="Сайт1.svg"
   xml:space="preserve"
   inkscape:export-filename="../PNG/Сайт1.png"
   inkscape:export-xdpi="96"
   inkscape:export-ydpi="96"
   xmlns:inkscape="http://www.inkscape.org/namespaces/inkscape"
   xmlns:sodipodi="http://sodipodi.sourceforge.net/DTD/sodipodi-0.dtd"
   xmlns="http://www.w3.org/2000/svg"
   xmlns:svg="http://www.w3.org/2000/svg"><sodipodi:namedview
     id="namedview7"
     pagecolor="#ffffff"
     bordercolor="#000000"
     borderopacity="0.25"
     inkscape:showpageshadow="2"
     inkscape:pageopacity="0.0"
     inkscape:pagecheckerboard="0"
     inkscape:deskcolor="#d1d1d1"
     inkscape:document-units="mm"
     showgrid="false"
     inkscape:zoom="0.67351921"
     inkscape:cx="881.93476"
     inkscape:cy="481.05532"
     inkscape:window-width="1280"
     inkscape:window-height="772"
     inkscape:window-x="0"
     inkscape:window-y="28"
     inkscape:window-maximized="0"
     inkscape:current-layer="layer1"
     showguides="true" /><defs
     id="defs2"><linearGradient
       id="linearGradient6508"
       inkscape:swatch="solid"><stop
         style="stop-color:#ffffff;stop-opacity:1;"
         offset="0"
         id="stop6506" /></linearGradient></defs><g
     inkscape:label="Шар 1"
     inkscape:groupmode="layer"
     id="layer1"
     transform="translate(-95.091134,-30.051593)"><g
       id="g8357"
       inkscape:label="Групи товарів"
       transform="translate(0.13550892,-0.22549156)"><g
         id="g8204"
         inkscape:label="Все"><g
           id="g6247"
           transform="matrix(0.00987741,0,0,0.01034941,94.242366,35.780856)"
           style="fill:#7554fa;fill-opacity:1">
	<g
   id="g6245"
   style="fill:#7554fa;fill-opacity:1"
   transform="matrix(0.88484655,0,0,0.90555522,8.315335,158.12989)">
		<path
   d="m 72.373,-168.93746 c -10.264,-439.091 468.903,-747.492 889.469,-506.487 138.551,79.397 256.167,196.988 382.632,325.418 5.749,5.839 8.404,5.236 13.785,-0.188 197.808,-199.402 484.222,-503.454 885.399,-385.157 168.833,49.784 286.15,159.321 346.255,324.377 201.16,552.413 -375.869,1009.769 -870.693,706.588 -124.801,-76.466 -232.581,-181.978 -359.98,-311.726 -6.801,-6.927 -9.868,-5.946 -16.086,0.324 -144.739,145.956 -300.538,304.607 -492.977,371.024 -391.602,135.153 -767.007,-98.201 -777.804,-524.173 z m 245.045,-8.512 c 12.485,253.639 207.59,371.88 415.468,326.918 179.653,-38.857 330.36,-196.86 458.721,-328.811 4.325,-4.446 1.9,-6.251 -1.072,-9.025 -111.488,-104.066 -220.365,-231.184 -357.581,-296.6 -265.944,-126.785 -516.431,59.149 -515.536,307.518 z m 2067.847,-10.72 c -7.903,-245.124 -201.289,-378.703 -424.132,-326.433 -175.334,41.126 -325.161,198.381 -449.641,326.279 -4.318,4.437 -2.66,6.509 0.879,9.811 155.637,145.245 339.3,374.567 587.443,332.772 165.289,-27.84 285.82,-171.807 285.451,-342.429 z"
   id="path6243"
   style="fill:#7554fa;fill-opacity:1" />
	</g>
</g></g></g></g></svg>
