<?xml version="1.0" encoding="UTF-8" standalone="no"?>
<!-- Created with Inkscape (http://www.inkscape.org/) -->

<svg
   width="15.723747mm"
   height="13.835983mm"
   viewBox="0 0 15.723747 13.835983"
   version="1.1"
   id="svg68348"
   xml:space="preserve"
   inkscape:export-filename="Ава.png"
   inkscape:export-xdpi="500"
   inkscape:export-ydpi="500"
   sodipodi:docname="Ава.svg"
   xmlns:inkscape="http://www.inkscape.org/namespaces/inkscape"
   xmlns:sodipodi="http://sodipodi.sourceforge.net/DTD/sodipodi-0.dtd"
   xmlns="http://www.w3.org/2000/svg"
   xmlns:svg="http://www.w3.org/2000/svg"><sodipodi:namedview
     id="namedview68350"
     pagecolor="#ffffff"
     bordercolor="#000000"
     borderopacity="0.25"
     inkscape:showpageshadow="2"
     inkscape:pageopacity="0.0"
     inkscape:pagecheckerboard="0"
     inkscape:deskcolor="#d1d1d1"
     inkscape:document-units="mm"
     showgrid="false" /><defs
     id="defs68345"><linearGradient
       id="linearGradient6508"
       inkscape:swatch="solid"><stop
         style="stop-color:#ffffff;stop-opacity:1;"
         offset="0"
         id="stop6506" /></linearGradient></defs><g
     inkscape:label="Шар 1"
     inkscape:groupmode="layer"
     id="layer1"
     transform="translate(-51.286424,-122.70497)"><path
       d="m 60.158902,123.05066 0.09051,0.0784 6.760759,6.13915 -0.725105,0.68171 -0.93095,-0.8452 5.18e-4,6.48 c 0,0.50387 -0.422031,0.9169 -0.957326,0.95323 l -0.07706,0.003 H 53.976366 c -0.545123,0 -0.991978,-0.39009 -1.031802,-0.88487 l -0.0026,-0.0713 -5.17e-4,-6.47952 -0.929915,0.84472 -0.725106,-0.68171 6.753519,-6.13293 c 0.575637,-0.54307 1.504,-0.57319 2.118943,-0.0846 z m -1.337463,0.719 -0.04965,0.0416 -4.795939,4.35458 5.17e-4,7.41889 2.585452,-4.8e-4 5.18e-4,-4.78004 c 0,-0.50387 0.42203,-0.91691 0.957326,-0.95372 l 0.07706,-0.002 h 3.103163 c 0.545123,0 0.991978,0.39009 1.031802,0.88488 l 0.0026,0.0712 -5.17e-4,4.78004 2.586487,4.8e-4 -5.31e-4,-7.41937 -4.809387,-4.36749 c -0.188258,-0.17067 -0.482025,-0.18119 -0.688902,-0.0282 z m 1.878448,7.03454 h -3.103164 l -5.17e-4,4.78004 h 3.103164 z"
       fill="#3c3c3c"
       id="path2460"
       style="fill:#6962d5;fill-opacity:1;stroke-width:0.497238" /></g></svg>
