<?xml version="1.0" encoding="UTF-8" standalone="no"?>
<!-- Created with Inkscape (http://www.inkscape.org/) -->

<svg
   width="15.723724mm"
   height="13.835917mm"
   viewBox="0 0 15.723724 13.835917"
   version="1.1"
   id="svg5"
   inkscape:version="1.2.1 (9c6d41e, 2022-07-14)"
   sodipodi:docname="Сайт1.svg"
   xml:space="preserve"
   inkscape:export-filename="../PNG/Сайт1.png"
   inkscape:export-xdpi="96"
   inkscape:export-ydpi="96"
   xmlns:inkscape="http://www.inkscape.org/namespaces/inkscape"
   xmlns:sodipodi="http://sodipodi.sourceforge.net/DTD/sodipodi-0.dtd"
   xmlns="http://www.w3.org/2000/svg"
   xmlns:svg="http://www.w3.org/2000/svg"><sodipodi:namedview
     id="namedview7"
     pagecolor="#ffffff"
     bordercolor="#000000"
     borderopacity="0.25"
     inkscape:showpageshadow="2"
     inkscape:pageopacity="0.0"
     inkscape:pagecheckerboard="0"
     inkscape:deskcolor="#d1d1d1"
     inkscape:document-units="mm"
     showgrid="false"
     inkscape:zoom="0.67351921"
     inkscape:cx="881.93476"
     inkscape:cy="481.05532"
     inkscape:window-width="1280"
     inkscape:window-height="772"
     inkscape:window-x="0"
     inkscape:window-y="28"
     inkscape:window-maximized="0"
     inkscape:current-layer="layer1"
     showguides="true" /><defs
     id="defs2"><linearGradient
       id="linearGradient6508"
       inkscape:swatch="solid"><stop
         style="stop-color:#ffffff;stop-opacity:1;"
         offset="0"
         id="stop6506" /></linearGradient></defs><g
     inkscape:label="Шар 1"
     inkscape:groupmode="layer"
     id="layer1"
     transform="translate(-273.17905,-27.044568)"><g
       id="g8357"
       inkscape:label="Групи товарів"
       transform="translate(0.13550892,-0.22549156)"><g
         id="g8253"
         inkscape:label="Дім"><g
           style="fill:#7554fa;fill-opacity:1"
           id="g2469"
           transform="matrix(0.51719396,0,0,0.47805229,269.42318,23.41804)"
           inkscape:label="Для дому"><path
             d="M 24.155,8.78099 24.33,8.94499 37.402,21.787 36,23.213 34.2,21.445 34.201,35 c 0,1.054 -0.816,1.918 -1.851,1.994 L 32.201,37 h -20 c -1.054,0 -1.918,-0.816 -1.995,-1.851 L 10.201,35 10.2,21.446 8.402,23.213 7,21.787 20.058,8.95799 c 1.113,-1.136 2.908,-1.199 4.097,-0.177 z M 21.569,10.285 21.473,10.372 12.2,19.481 12.201,35 17.2,34.999 17.201,25 c 0,-1.054 0.816,-1.918 1.851,-1.995 L 19.201,23 h 6 c 1.054,0 1.918,0.816 1.995,1.851 L 27.201,25 27.2,34.999 32.201,35 32.2,19.48 22.901,10.344 C 22.537,9.98699 21.969,9.96499 21.569,10.285 Z M 25.201,25 h -6 L 19.2,34.999 h 6 z"
             fill="#3c3c3c"
             id="path2460"
             style="fill:#7554fa;fill-opacity:1" /></g></g></g></g></svg>
