<?xml version="1.0" encoding="UTF-8" standalone="no"?>
<!-- Created with Inkscape (http://www.inkscape.org/) -->

<svg
   width="15.226494mm"
   height="13.583778mm"
   viewBox="0 0 15.226494 13.583778"
   version="1.1"
   id="svg68348"
   xml:space="preserve"
   inkscape:export-filename="Ава.png"
   inkscape:export-xdpi="500"
   inkscape:export-ydpi="500"
   sodipodi:docname="Ава.svg"
   xmlns:inkscape="http://www.inkscape.org/namespaces/inkscape"
   xmlns:sodipodi="http://sodipodi.sourceforge.net/DTD/sodipodi-0.dtd"
   xmlns="http://www.w3.org/2000/svg"
   xmlns:svg="http://www.w3.org/2000/svg"><sodipodi:namedview
     id="namedview68350"
     pagecolor="#ffffff"
     bordercolor="#000000"
     borderopacity="0.25"
     inkscape:showpageshadow="2"
     inkscape:pageopacity="0.0"
     inkscape:pagecheckerboard="0"
     inkscape:deskcolor="#d1d1d1"
     inkscape:document-units="mm"
     showgrid="false" /><defs
     id="defs68345"><linearGradient
       id="linearGradient6508"
       inkscape:swatch="solid"><stop
         style="stop-color:#ffffff;stop-opacity:1;"
         offset="0"
         id="stop6506" /></linearGradient></defs><g
     inkscape:label="Шар 1"
     inkscape:groupmode="layer"
     id="layer1"
     transform="translate(-75.760691,-120.31403)"><path
       clip-rule="evenodd"
       d="m 87.014213,126.44172 c 0,-0.75021 0.44445,-1.14137 1.204524,-1.2236 h 1.698704 l -0.02996,-3.83022 -3.806742,-0.002 c -0.307367,1.17175 -1.43182,2.06933 -2.721774,2.06933 -1.289962,0 -2.343965,-0.8994 -2.651291,-2.07115 l -3.686953,0.015 0.0041,3.87878 1.504023,0.015 c 0.76445,0.008 1.146472,0.38399 1.172454,1.13375 l -0.05781,6.36727 7.370391,0.0299 z m -10.561402,-0.015 c -0.382241,0 -0.692116,-0.30407 -0.692116,-0.67918 v -4.07514 c 0,-0.75021 0.619742,-1.35837 1.384225,-1.35837 h 4.498738 c 0.191116,0 0.346054,0.15204 0.346054,0.33959 v 0.3396 c 0,0.75021 0.619718,1.35837 1.384233,1.35837 0.764507,0 1.384225,-0.60816 1.384225,-1.35837 v -0.3396 c 0,-0.18755 0.154962,-0.33959 0.346054,-0.33959 h 4.498738 c 0.764507,0 1.384225,0.60816 1.384225,1.35837 v 4.07514 c 0,0.37511 -0.309859,0.67918 -0.692116,0.67918 h -2.076334 v 6.1127 c 0,0.75023 -0.619718,1.35838 -1.384225,1.35838 h -6.921134 c -0.764491,0 -1.384233,-0.60815 -1.384233,-1.35838 v -6.1127 z"
       fill="#000000"
       fill-rule="evenodd"
       id="path2395"
       style="fill:#6962d5;fill-opacity:1;stroke-width:0.68562"
       sodipodi:nodetypes="sscccscccssccsssssssssssssssscsssscs" /></g></svg>
