<?xml version="1.0" encoding="UTF-8" standalone="no"?>
<!-- Created with Inkscape (http://www.inkscape.org/) -->

<svg
   width="15.226501mm"
   height="13.583769mm"
   viewBox="0 0 15.226501 13.583769"
   version="1.1"
   id="svg5"
   inkscape:version="1.2.1 (9c6d41e, 2022-07-14)"
   sodipodi:docname="Сайт1.svg"
   xml:space="preserve"
   inkscape:export-filename="../PNG/Сайт1.png"
   inkscape:export-xdpi="96"
   inkscape:export-ydpi="96"
   xmlns:inkscape="http://www.inkscape.org/namespaces/inkscape"
   xmlns:sodipodi="http://sodipodi.sourceforge.net/DTD/sodipodi-0.dtd"
   xmlns="http://www.w3.org/2000/svg"
   xmlns:svg="http://www.w3.org/2000/svg"><sodipodi:namedview
     id="namedview7"
     pagecolor="#ffffff"
     bordercolor="#000000"
     borderopacity="0.25"
     inkscape:showpageshadow="2"
     inkscape:pageopacity="0.0"
     inkscape:pagecheckerboard="0"
     inkscape:deskcolor="#d1d1d1"
     inkscape:document-units="mm"
     showgrid="false"
     inkscape:zoom="0.67351921"
     inkscape:cx="881.93476"
     inkscape:cy="481.05532"
     inkscape:window-width="1280"
     inkscape:window-height="772"
     inkscape:window-x="0"
     inkscape:window-y="28"
     inkscape:window-maximized="0"
     inkscape:current-layer="layer1"
     showguides="true" /><defs
     id="defs2"><linearGradient
       id="linearGradient6508"
       inkscape:swatch="solid"><stop
         style="stop-color:#ffffff;stop-opacity:1;"
         offset="0"
         id="stop6506" /></linearGradient></defs><g
     inkscape:label="Шар 1"
     inkscape:groupmode="layer"
     id="layer1"
     transform="translate(-243.59329,-27.296716)"><g
       id="g8357"
       inkscape:label="Групи товарів"
       transform="translate(0.13550892,-0.22549156)"><g
         id="g8247"
         inkscape:label="Одяг"><g
           style="fill:#7554fa;fill-opacity:1"
           id="g2404"
           transform="matrix(0.81191461,0,0,0.67918844,148.62829,-7.7869593)"
           inkscape:label="Одяг"><path
             clip-rule="evenodd"
             d="m 130.65783,61.009338 c 0,-1.10457 0.54741,-1.680495 1.48356,-1.801563 h 2.09222 l -0.0369,-5.63941 -4.6886,-0.0027 c -0.37857,1.72523 -1.76351,3.046772 -3.35229,3.046772 -1.58879,0 -2.88696,-1.324217 -3.26548,-3.049447 l -4.54106,0.02205 0.005,5.710906 1.85244,0.02205 c 0.94154,0.01121 1.41206,0.565363 1.44406,1.669271 l -0.0712,9.374826 9.07779,0.0441 z m -13.00802,-0.02205 c -0.47079,0 -0.85245,-0.4477 -0.85245,-1 v -6 c 0,-1.10457 0.76331,-2 1.70489,-2 h 5.5409 c 0.23539,0 0.42622,0.22386 0.42622,0.5 v 0.5 c 0,1.10457 0.76328,2 1.7049,2 0.94161,0 1.70489,-0.89543 1.70489,-2 v -0.5 c 0,-0.27614 0.19086,-0.5 0.42622,-0.5 h 5.5409 c 0.94161,0 1.70489,0.89543 1.70489,2 v 6 c 0,0.5523 -0.38164,1 -0.85245,1 h -2.55733 v 9 c 0,1.1046 -0.76328,2 -1.70489,2 h -8.52446 c -0.94159,0 -1.7049,-0.8954 -1.7049,-2 v -9 z"
             fill="#000000"
             fill-rule="evenodd"
             id="path2395"
             style="fill:#7554fa;fill-opacity:1;stroke-width:0.92328"
             sodipodi:nodetypes="sscccscccssccsssssssssssssssscsssscs" /></g></g></g></g></svg>
