<?xml version="1.0" encoding="UTF-8" standalone="no"?>
<!-- Created with Inkscape (http://www.inkscape.org/) -->

<svg
   width="11.832901mm"
   height="14.828011mm"
   viewBox="0 0 11.832901 14.828011"
   version="1.1"
   id="svg68348"
   xml:space="preserve"
   inkscape:export-filename="Ава.png"
   inkscape:export-xdpi="500"
   inkscape:export-ydpi="500"
   sodipodi:docname="Ава.svg"
   xmlns:inkscape="http://www.inkscape.org/namespaces/inkscape"
   xmlns:sodipodi="http://sodipodi.sourceforge.net/DTD/sodipodi-0.dtd"
   xmlns="http://www.w3.org/2000/svg"
   xmlns:svg="http://www.w3.org/2000/svg"><sodipodi:namedview
     id="namedview68350"
     pagecolor="#ffffff"
     bordercolor="#000000"
     borderopacity="0.25"
     inkscape:showpageshadow="2"
     inkscape:pageopacity="0.0"
     inkscape:pagecheckerboard="0"
     inkscape:deskcolor="#d1d1d1"
     inkscape:document-units="mm"
     showgrid="false" /><defs
     id="defs68345"><linearGradient
       id="linearGradient6508"
       inkscape:swatch="solid"><stop
         style="stop-color:#ffffff;stop-opacity:1;"
         offset="0"
         id="stop6506" /></linearGradient></defs><g
     inkscape:label="Шар 1"
     inkscape:groupmode="layer"
     id="layer1"
     transform="translate(-61.411943,-120.9504)"><path
       d="m 69.966599,124.96312 h 2.279754 c 0.546273,0 0.998486,0.47578 0.998486,1.09582 v 3.76392 h -5.426552 v -4.38396 c -0.188724,-0.0622 -0.358153,-0.14491 -0.470904,-0.26866 -0.01869,0 -0.01869,-0.0205 -0.03799,-0.0205 0,0 0,0.0205 -0.01869,0.0205 -0.132046,0.12441 -0.282783,0.20712 -0.452212,0.26866 v 4.38396 H 61.41194 v -3.76392 c 0,-0.6207 0.433522,-1.09582 0.979795,-1.09582 h 2.299049 c -0.264092,-0.14492 -0.50889,-0.35138 -0.716305,-0.53798 -0.904425,-0.95157 -1.073854,-2.27503 -0.358152,-3.01947 0.301475,-0.28984 0.69701,-0.45527 1.130531,-0.45527 0.621642,0 1.262578,0.26866 1.808851,0.82716 0.301475,0.31035 0.584259,0.74445 0.753688,1.15803 0.188723,-0.41358 0.470904,-0.84768 0.772379,-1.15803 0.527582,-0.5585 1.205901,-0.82716 1.808851,-0.82716 0.452213,0 0.847748,0.16543 1.130532,0.45527 0.716304,0.74444 0.546272,2.0679 -0.376844,3.01947 -0.188724,0.18594 -0.433521,0.39306 -0.678319,0.53798 z m -3.354213,-0.59952 c 0.07537,-0.18595 -0.113354,-1.13752 -0.734996,-1.77873 -0.320167,-0.33086 -0.753688,-0.51681 -1.130532,-0.51681 -0.113354,0 -0.301475,0.0205 -0.433521,0.14492 -0.03799,0.0417 -0.150738,0.1244 -0.150738,0.35138 0,0.26866 0.150738,0.68224 0.50889,1.03428 0.452213,0.47578 1.168518,0.80664 1.6961,0.80664 0.169429,0 0.244797,-0.0417 0.244797,-0.0417 z m 1.432007,0 c 0,0 0.09406,0.0417 0.244798,0.0417 0.527581,0 1.243886,-0.33087 1.696099,-0.80665 0.358153,-0.35138 0.470904,-0.76496 0.470904,-1.03428 0,-0.22764 -0.09406,-0.31035 -0.113354,-0.35138 -0.132046,-0.12441 -0.339461,-0.14492 -0.452213,-0.14492 -0.358153,0 -0.810365,0.18595 -1.130532,0.51681 -0.60295,0.64121 -0.810365,1.57161 -0.716305,1.79924 v -0.0205 z m -1.2059,11.41481 h -4.446758 c -0.546273,0 -0.979795,-0.47578 -0.979795,-1.07531 v -3.78442 h 5.426553 z m 5.40786,0 h -4.428066 v -4.85973 h 5.426552 v 3.78442 c 0,0.59953 -0.452213,1.07531 -0.998486,1.07531 z"
       id="path2635"
       style="fill:#6962d5;fill-opacity:1;stroke-width:0.631656" /></g></svg>
