<?xml version="1.0" encoding="UTF-8" standalone="no"?>
<!-- Created with Inkscape (http://www.inkscape.org/) -->

<svg
   width="14.69751mm"
   height="13.53775mm"
   viewBox="0 0 14.69751 13.53775"
   version="1.1"
   id="svg68348"
   xml:space="preserve"
   inkscape:export-filename="Ава.png"
   inkscape:export-xdpi="500"
   inkscape:export-ydpi="500"
   sodipodi:docname="Ава.svg"
   xmlns:inkscape="http://www.inkscape.org/namespaces/inkscape"
   xmlns:sodipodi="http://sodipodi.sourceforge.net/DTD/sodipodi-0.dtd"
   xmlns="http://www.w3.org/2000/svg"
   xmlns:svg="http://www.w3.org/2000/svg"><sodipodi:namedview
     id="namedview68350"
     pagecolor="#ffffff"
     bordercolor="#000000"
     borderopacity="0.25"
     inkscape:showpageshadow="2"
     inkscape:pageopacity="0.0"
     inkscape:pagecheckerboard="0"
     inkscape:deskcolor="#d1d1d1"
     inkscape:document-units="mm"
     showgrid="false" /><defs
     id="defs68345"><linearGradient
       id="linearGradient6508"
       inkscape:swatch="solid"><stop
         style="stop-color:#ffffff;stop-opacity:1;"
         offset="0"
         id="stop6506" /></linearGradient></defs><g
     inkscape:label="Шар 1"
     inkscape:groupmode="layer"
     id="layer1"
     transform="translate(-38.900186,-139.52879)"><path
       d="M 52.296147,139.52879 H 40.201735 c -0.36043,0 -0.667462,0.13652 -0.921098,0.40958 -0.253635,0.27305 -0.380453,0.60359 -0.380453,0.99162 v 10.73536 c 0,0.38803 0.126818,0.71856 0.380453,0.99162 0.253636,0.27305 0.560668,0.40958 0.921098,0.40958 h 12.094412 c 0.360429,0 0.667462,-0.13653 0.921097,-0.40958 0.253636,-0.27306 0.380454,-0.60359 0.380454,-0.99162 v -10.73536 c 0,-0.38803 -0.126818,-0.71857 -0.380454,-0.99162 -0.253635,-0.27306 -0.560668,-0.40958 -0.921097,-0.40958 z m -0.01546,11.31991 c -4.25e-4,0.16686 -0.04483,0.57089 -0.178323,0.7146 -0.133493,0.14371 -0.556668,0.2594 -0.743558,0.2594 h -1.30344 c -0.06675,-0.14371 -0.20213,-0.67472 -0.362321,-0.80406 -0.280334,-0.24431 -0.640764,-0.38802 -1.081289,-0.43114 v -0.97006 c 0.213588,0.0719 0.393803,0.0862 0.540645,0.0431 0.106794,-0.0431 0.193564,-0.10779 0.26031,-0.19401 l 0.06007,-0.10779 c 0.253636,0.17246 0.560669,0.19401 0.921098,0.0647 0.160191,-0.0718 0.300358,-0.20119 0.420501,-0.38802 0.120143,-0.21557 0.180215,-0.48863 0.180215,-0.81917 -0.01335,-0.47425 -0.193564,-0.81916 -0.540644,-1.03473 -0.0267,-0.0287 -0.04672,-0.0611 -0.06007,-0.097 -0.01335,-0.0359 -0.0067,-0.0754 0.02002,-0.11856 0.0801,-0.14371 0.12348,-0.2982 0.130155,-0.46347 0.0067,-0.16527 -0.03004,-0.32695 -0.110131,-0.48503 -0.0801,-0.2012 -0.27366,-0.35929 -0.580692,-0.47426 -0.0801,-0.0287 -0.126818,-0.0934 -0.140167,-0.19401 -0.08009,-0.54611 -0.213585,-1.05629 -0.400474,-1.53054 -0.160191,-0.4024 -0.340406,-0.73294 -0.540645,-0.99162 -0.186889,-0.22994 -0.34708,-0.3521 -0.480573,-0.36647 -0.200238,-0.0287 -0.393802,0.38803 -0.580692,1.25031 v 0.0862 c -0.574017,0.33054 -0.947796,0.72575 -1.121336,1.18564 -0.133492,0.31616 -0.166865,0.63952 -0.100119,0.97006 0.01335,0.0575 0.0033,0.11856 -0.03004,0.18323 -0.03337,0.0647 -0.08343,0.10419 -0.150179,0.11857 -0.307032,0.0575 -0.614065,0.28742 -0.921097,0.68982 -0.200239,0.25868 -0.32372,0.54611 -0.370442,0.86228 -0.04672,0.31616 -0.0033,0.60359 0.130155,0.86227 0.133493,0.25869 0.353755,0.44551 0.660788,0.56048 0.146841,0.0575 0.320381,0.0575 0.52062,0 0.09344,-0.0144 0.180215,-0.0431 0.26031,-0.0862 l 0.04005,0.10778 c 0.04005,0.0862 0.09345,0.15809 0.160191,0.21557 0.0801,0.0862 0.17354,0.14371 0.280334,0.17246 0.213588,0.0719 0.420501,0.079 0.62074,0.0216 v 0.92695 c -0.413827,0.0575 -0.760907,0.20119 -1.041241,0.43113 -0.160191,0.12935 -0.383236,0.61652 -0.449983,0.76023 H 41.16477 c -0.18689,0 -0.741558,-0.0938 -0.87505,-0.23748 -0.133492,-0.14372 -0.114096,-0.62299 -0.112577,-0.82419 l 0.06575,-8.70972 c 0.0015,-0.20119 0.02291,-0.76813 0.156408,-0.91185 0.133492,-0.14371 0.534754,-0.23828 0.721642,-0.23748 l 10.237867,0.0438 c 0.186888,8e-4 0.632589,0.0825 0.831219,0.30323 0.183275,0.20369 0.113089,0.82022 0.112577,1.02142 z m -10.917568,-6.7714 c 0,0.56048 0.183552,1.03833 0.550656,1.43354 0.367104,0.39521 0.810966,0.59282 1.331587,0.59282 0.52062,0 0.964482,-0.19761 1.331586,-0.59282 0.367104,-0.39521 0.550656,-0.86946 0.550656,-1.42276 0,-0.55329 -0.183552,-1.02755 -0.550656,-1.42276 -0.367104,-0.39521 -0.810966,-0.59281 -1.331586,-0.59281 -0.520621,0 -0.964483,0.1976 -1.331587,0.59281 -0.367104,0.39521 -0.550656,0.86587 -0.550656,1.41198 z"
       id="path2745"
       sodipodi:nodetypes="sssssssssssssssscccccccccccscsccccccccccsccssccccccccccsssssssssssssssssss"
       style="fill:#6962d5;fill-opacity:1;stroke-width:0.0207763"
       inkscape:export-filename="Хобі.svg"
       inkscape:export-xdpi="500"
       inkscape:export-ydpi="500" /></g></svg>
