<?xml version="1.0" encoding="UTF-8" standalone="no"?>
<!-- Created with Inkscape (http://www.inkscape.org/) -->

<svg
   width="13.412498mm"
   height="13.412491mm"
   viewBox="0 0 13.412498 13.412491"
   version="1.1"
   id="svg68348"
   xml:space="preserve"
   inkscape:export-filename="Ава.png"
   inkscape:export-xdpi="500"
   inkscape:export-ydpi="500"
   sodipodi:docname="Ава.svg"
   xmlns:inkscape="http://www.inkscape.org/namespaces/inkscape"
   xmlns:sodipodi="http://sodipodi.sourceforge.net/DTD/sodipodi-0.dtd"
   xmlns="http://www.w3.org/2000/svg"
   xmlns:svg="http://www.w3.org/2000/svg"><sodipodi:namedview
     id="namedview68350"
     pagecolor="#ffffff"
     bordercolor="#000000"
     borderopacity="0.25"
     inkscape:showpageshadow="2"
     inkscape:pageopacity="0.0"
     inkscape:pagecheckerboard="0"
     inkscape:deskcolor="#d1d1d1"
     inkscape:document-units="mm"
     showgrid="false" /><defs
     id="defs68345"><linearGradient
       id="linearGradient6508"
       inkscape:swatch="solid"><stop
         style="stop-color:#ffffff;stop-opacity:1;"
         offset="0"
         id="stop6506" /></linearGradient><style
       id="style2434">.cls-1,.cls-2{fill:none;stroke:#000000;stroke-linecap:round;stroke-linejoin:round;stroke-width:1.5px;}.cls-2{fill-rule:evenodd;}</style></defs><style
     type="text/css"
     id="style2576">
	.st0{fill:#000000;}
</style><g
     style="fill:#6962d5;fill-opacity:1"
     id="g2432"
     transform="matrix(0.83828125,0,0,0.83828125,-3.5395441e-6,-8.5444535e-6)"
     inkscape:label="Настільні ігри"
     inkscape:export-filename="ігри.sv"
     inkscape:export-xdpi="500"
     inkscape:export-ydpi="500"><path
       d="M 13.04989,1.0997806 C 14.154456,1.097039 14.853091,1.895434 14.850329,3 l -0.02494,9.975055 C 14.822627,14.079621 14.104566,14.87803 13,14.875274 L 3,14.850329 C 1.8954339,14.847574 1.1247258,14.129515 1.1247258,13.024945 V 2.9750548 C 1.1247258,1.8704853 1.8954339,1.1274675 3,1.1247258 Z M 3,0 C 1.3431458,0 0,1.3431458 0,3 v 10 c 0,1.656854 1.3431458,3 3,3 h 10 c 1.656854,0 3,-1.343146 3,-3 V 3 C 16,1.3431458 14.656854,0 13,0 Z"
       id="path2420"
       sodipodi:nodetypes="ssssssssssssssssss"
       style="fill:#6962d5;fill-opacity:1" /><path
       d="m 5.5,4 a 1.5,1.5 0 1 1 -3,0 1.5,1.5 0 0 1 3,0 z m 8,0 a 1.5,1.5 0 1 1 -3,0 1.5,1.5 0 0 1 3,0 z m 0,8 a 1.5,1.5 0 1 1 -3,0 1.5,1.5 0 0 1 3,0 z m -8,0 a 1.5,1.5 0 1 1 -3,0 1.5,1.5 0 0 1 3,0 z m 4,-4 a 1.5,1.5 0 1 1 -3,0 1.5,1.5 0 0 1 3,0 z"
       id="path2422"
       style="fill:#6962d5;fill-opacity:1" /></g></svg>
