<?xml version="1.0" encoding="UTF-8" standalone="no"?>
<!-- Created with Inkscape (http://www.inkscape.org/) -->

<svg
   width="12.822784mm"
   height="14.125605mm"
   viewBox="0 0 12.822784 14.125605"
   version="1.1"
   id="svg5"
   inkscape:version="1.2.1 (9c6d41e, 2022-07-14)"
   sodipodi:docname="Сайт1.svg"
   xml:space="preserve"
   inkscape:export-filename="../PNG/Сайт1.png"
   inkscape:export-xdpi="96"
   inkscape:export-ydpi="96"
   xmlns:inkscape="http://www.inkscape.org/namespaces/inkscape"
   xmlns:sodipodi="http://sodipodi.sourceforge.net/DTD/sodipodi-0.dtd"
   xmlns="http://www.w3.org/2000/svg"
   xmlns:svg="http://www.w3.org/2000/svg"><sodipodi:namedview
     id="namedview7"
     pagecolor="#ffffff"
     bordercolor="#000000"
     borderopacity="0.25"
     inkscape:showpageshadow="2"
     inkscape:pageopacity="0.0"
     inkscape:pagecheckerboard="0"
     inkscape:deskcolor="#d1d1d1"
     inkscape:document-units="mm"
     showgrid="false"
     inkscape:zoom="0.67351921"
     inkscape:cx="881.93476"
     inkscape:cy="481.05532"
     inkscape:window-width="1280"
     inkscape:window-height="772"
     inkscape:window-x="0"
     inkscape:window-y="28"
     inkscape:window-maximized="0"
     inkscape:current-layer="layer1"
     showguides="true" /><defs
     id="defs2"><linearGradient
       id="linearGradient6508"
       inkscape:swatch="solid"><stop
         style="stop-color:#ffffff;stop-opacity:1;"
         offset="0"
         id="stop6506" /></linearGradient></defs><g
     inkscape:label="Шар 1"
     inkscape:groupmode="layer"
     id="layer1"
     transform="translate(-380.79132,-26.754876)"><g
       id="g8357"
       inkscape:label="Групи товарів"
       transform="translate(0.13550892,-0.22549156)"><g
         id="g8281"
         inkscape:label="Інше"><g
           style="fill:#7554fa;fill-opacity:1"
           id="g2418"
           transform="matrix(0.01459389,0,0,0.01606782,379.60976,25.828627)"
           inkscape:label="Інше"><path
             d="m 409.798,551.245 c -4.196,-18.934 -19.682,-34.42 -38.619,-38.617 -38.375,-8.511 -71.514,24.626 -63.01,63.005 4.196,18.939 19.677,34.417 38.629,38.615 38.373,8.511 71.505,-24.624 63,-63.004 z m 39.99,-8.862 c 14.987,67.63 -44.232,126.854 -111.854,111.856 -34.491,-7.641 -62.115,-35.258 -69.755,-69.744 -14.987,-67.629 44.242,-126.853 111.866,-111.855 34.477,7.641 62.102,35.266 69.743,69.743 z M 621.693,756.37 c 4.90058,-2.82552 6.57897,-9.09114 3.747,-13.988 l -39.116,-67.757 c -2.825,-4.892 -9.094,-6.572 -13.987,-3.748 l -67.744,39.114 c -4.904,2.833 -6.585,9.101 -3.762,13.991 l 39.114,67.753 c 2.831,4.901 9.1,6.579 14,3.752 z m -47.272,74.592 c -24.489,14.13 -55.798,5.746 -69.946,-18.743 l -39.116,-67.757 c -14.136,-24.481 -5.739,-55.794 18.749,-69.94 l 67.753,-39.12 c 24.487,-14.129 55.8,-5.738 69.935,18.743 l 39.114,67.753 c 14.148,24.49 5.755,55.81 -18.739,69.945 l -67.751,39.118 z m 173.24,-237.158 c -1.252,20.821 -22.113,32.036 -40.165,21.607 L 600.36,553.558 c -18.058,-10.433 -18.757,-34.1 -1.357,-45.586 l 117.423,-77.528 c 18.778,-12.396 41.013,0.422 39.662,22.898 l -8.428,140.462 z m -34.298,-112.254 -72.685,47.99 67.468,38.951 5.216,-86.941 z M 462.49418,283.68007 380.95839,124.77676 c -3.461,-6.812 -3.79265,-6.65429 3.85235,-6.65429 h 251.628 c 7.645,0 5.42203,-1.53332 1.95903,5.27868 l -80.397,158.224 c -5.12391,10.08403 6.44223,26.52385 16.52623,31.64785 10.084,5.124 22.412,1.103 27.536,-8.981 L 682.457,146.074 C 699.776,112.016 675.03,71.68 636.817,71.68 H 385.189 c -38.208,0 -62.956,40.328 -45.651,74.392 l 80.406,158.221 c 5.124,10.083 17.453,14.104 27.536,8.979 10.083,-5.125 24.92548,-31.48539 13.12887,-28.56396 z"
             id="path2406"
             sodipodi:nodetypes="scscssscscscccccscccsccccscccssccccccscccccccsscssscsscsssc"
             style="fill:#7554fa;fill-opacity:1" /><path
             d="M 726.54905,894.76721 C 828.34842,894.44242 895.77859,827.324 895.77859,725.524 V 682.373 C 895.77859,485.3 748.033,330.82609 550.96,330.82609 h -79.923 c -197.073,0 -346.39553,161.44834 -338.78241,358.4 l 1.50905,39.03915 c 3.93252,101.73432 61.39999,168.19735 163.19336,167.87258 z M 725.04,950.804 H 296.957 c -124.415,0 -225.28,-100.862 -225.28,-225.28 v -43.151 c 0,-219.695 179.665,-399.36 399.36,-399.36 h 79.923 c 219.695,0 399.36,179.665 399.36,399.36 v 43.151 c 0,124.422 -100.858,225.28 -225.28,225.28 z"
             id="path2408"
             sodipodi:nodetypes="ssssssssssssssssss"
             style="fill:#7554fa;fill-opacity:1" /></g></g></g></g></svg>
